# xmcd CD database file
#
# Track frame offsets:
#	150
#	18526
#	37400
#	53108
#	65478
#	76054
#	92377
#	108693
#	117714
#	134848
#
# Disc length: 1961 seconds
#
# Revision: 2
# Processed by: cddbd v1.5.2PL0 Copyright (c) Steve Scherf et al.
# Submitted via: CDex 1.51
#
DISCID=9107a70a
DTITLE=King City - The Last Siesta
DYEAR=2007
DGENRE=Jazz
TTITLE0=The Last Siesta
TTITLE1=Baliwood
TTITLE2=Trinidad
TTITLE3=Chicken in a China Shop
TTITLE4=The Chase
TTITLE5=Bottom of the Well
TTITLE6=Agaña Ganja
TTITLE7=Highwire
TTITLE8=Ennio
TTITLE9=The Bees VS the Matador
EXTD=YEAR: 2007
EXTT0=
EXTT1=
EXTT2=
EXTT3=
EXTT4=
EXTT5=
EXTT6=
EXTT7=
EXTT8=
EXTT9=
PLAYORDER=
